<?xml version="1.0" encoding="UTF-8"?>
<svg id="_Слой_10" data-name="Слой 10" xmlns="http://www.w3.org/2000/svg" viewBox="0 0 466.9 240.4">
  <defs>
    <style>
      .cls-1, .cls-2 {
        fill: #fff;
      }

      .cls-2 {
        opacity: .2;
      }
    </style>
  </defs>
  <path class="cls-2" d="M403.5,36.2c-5.1-6.4-16-20-30.3-19.9-12.6,0-14.6,10.9-31.2,13.5-8.7,1.4-10.8-1.2-36.5-6.4-25.5-5.2-26.2-3.2-40.1-7.1-22.8-6.5-21.3-12-36.5-15-19.6-3.8-46.9,.5-59.6,14.2-12.3,13.3-1.3,25.2-14.2,34.9-14.4,10.8-38.2,4-41.8,12.1-1.8,4,3.4,6.7,8,15,7.2,12.8,9.2,32.3-.9,41.3-8.4,7.5-18.5,2-49,6.4-17.7,2.6-44.9,6.5-53.4,20.7-5.1,8.5,.8,13.4,1.8,27.8,1.4,21.4-25.7,42.9-18.7,57,7.3,14.8,55.3,9.6,79.6,4.9,42.2-8.2,49.8-22,75.6-17.5,24.2,4.2,26.9,17.9,49.3,17.5,22.8-.5,26.1-14.8,49.3-14.4,22,.4,28.1,13.3,44.9,9.2,14.8-3.6,13.4-14.4,28.5-19.5,21.6-7.3,32.6,11.8,54.8,6.2,18.6-4.7,15.8-19.3,42.5-31.3,16.6-7.4,22-4.1,30.3-11.4,13.6-12.1,12.7-32.3,7.1-46.3-9.3-23.5-28-20.1-41.8-45.6-10.6-19.6-3-27.8-17.8-46.3Z"/>
  <g>
    <path class="cls-1" d="M182.1,140.6c11.2-11.8,37.8-12.3,46.4,.4,1.5-1.2,2.7-2.3,4.2-3.3,6.9-5,15.7-7,25.9-5.8,11.1,1.3,18.3,6.9,20.1,14.9,1.1,4.6,.7,9.2,.8,13.8,0,6.4,0,12.7,0,19.1,0,1.4-.6,1.9-2.9,1.8-3.5-.2-8.1,.7-10.4-.4-2.3-1.2-.7-4.2-.7-6.4-.2-7.9-.2-15.7-.3-23.6,0-2-.8-4-2-5.8-4.1-6.4-15.8-8.2-24.2-3.9-4.9,2.5-7.3,5.8-7.3,9.8,0,9.4,0,18.7,0,28.1,0,1.7-.6,2.4-3.5,2.2-3.4-.2-7.9,.7-10-.4-2.2-1.1-.6-4.1-.6-6.2,0-7.3,0-14.6,0-21.8,0-1.8-.1-3.5-.7-5.2-1.5-4.2-4.7-7.6-11.8-8.5-7.4-1-13.2,.9-17.5,4.7-2.8,2.4-4.3,5.1-4.2,8.2,0,9,0,18.1,0,27.1,0,1.7-.4,2.4-3.3,2.2-3.4-.2-7.9,.6-9.9-.4-2.2-1.1-.6-4.1-.7-6.2-.2-13.5,.4-26.9-.5-40.4,0-1.2,.2-1.7,2.5-1.8,9.8-.2,9.8-.2,10.3,6,0,.5,0,.9,.2,2Z"/>
    <path class="cls-1" d="M358.8,89.2c6.1-4.8,11.7-9.1,17.2-13.5,1.1-.8,2.1-1.7,3.2-2.5q9.1-7,24-6c-3.4,2.4-6.4,4.6-9.5,6.8-5.4,3.8-10.9,7.7-16.4,11.5-1.8,1.2-1.9,1.9-.3,3.3,10.1,8.8,20,17.6,30.5,26.9-5.6,0-10.7,0-15.7,0-1.4,0-1.8-.9-2.4-1.4-7.2-6.6-14.4-13.1-21.4-19.8-1.8-1.7-2.7-1.6-4.8-.2-3.1,2.1-4.6,4.3-4.3,7.3,.4,4.1,0,8.2,.1,12.3,0,1.4-.5,1.9-2.7,1.8-3.4-.2-7.7,.7-9.9-.5-2.1-1-.6-4.1-.6-6.2,0-20.8,0-41.7,0-62.5,0-1.9,.6-2.5,3.5-2.3,3.1,.2,7.2-.6,9.1,.4,2,1.1,.6,3.9,.6,6,0,11.9,0,23.8,0,35.6v2.9Z"/>
    <path class="cls-1" d="M339.9,157c-7.6,0-15.2,0-22.8,0-2.3,0-2.9,.3-2.7,1.9,1.2,9,9.8,14.5,23.8,14.9,6.3,.2,12.6-.3,18.6-1.8,2-.5,2.9-.6,3.5,1.1,1.7,5,1.9,5.1-5.5,6.2-11.6,1.8-23.3,2.5-34.5-1-13-4-18.2-11.4-18.9-20.4-.6-8.2,2-15.9,11.2-21.9,9.6-6.2,21.2-7.6,33.6-5,11.9,2.5,17,8.9,19.2,16.6,.7,2.5,.8,5,.7,7.5-.1,1.4-.8,2-3.2,2-7.7-.1-15.4,0-23.1,0Zm-5.9-6.5c5.6,0,11.1,0,16.7,0,1,0,2.3,.4,2.6-.8,1.1-4.8-5.3-11.4-12.5-12.8-14.9-2.8-23.8,4.5-26,12.4-.4,1.4,1,1.2,2.3,1.2,5.7,0,11.4,0,17.1,0Z"/>
    <path class="cls-1" d="M313.6,115c-22.1,0-36.1-8.9-37.2-23.7-1.1-14.1,12.7-25.2,33.2-26.8,7.7-.6,15.1,0,22.4,1.5,2.2,.5,2.7,1.1,1.9,2.5-.9,1.6-.8,3.7-2.4,4.6-1.5,.9-4.1-.8-6.4-1.1-11.2-1.5-21.6-1-29.2,5.5-11,9.3-6.2,24.4,9.1,28.8,7.9,2.3,15.8,1.7,23.6-.2,2.5-.6,3.5-.7,4.2,1.3,1.6,5.1,1.8,5.1-6.1,6.3-2.2,.4-4.4,.7-6.7,.8-2.1,.2-4.3,.2-6.4,.2Z"/>
    <path class="cls-1" d="M199.6,105.2c.3,1,.7,1.9,1,2.9,1.4,4.1,1.4,4.2-4.8,5.3-8.3,1.4-16.7,1.9-25.1,.5-14.6-2.4-23.3-8.7-25.8-18.5-2.6-10.7,.6-20.3,14.8-26.9,12.5-5.8,26.4-5.8,40.6-2.7,1.4,.3,2,.8,1.5,1.8-.9,1.6-.8,3.8-2.5,4.9-2,1.4-4.6-.6-7-.9-13.7-2-25.4,.7-30.9,7.6-5.2,6.6-5.2,13.4-.1,20,5.4,6.9,17.6,9.8,30.9,7.5,2.4-.4,4.8-1,7.3-1.6Z"/>
    <path class="cls-1" d="M230.8,77.9c0,11.2,0,22.4,0,33.6,0,1.5-.3,2.3-3,2.1-3.4-.2-7.8,.7-9.9-.4-2.2-1.2-.7-4.2-.7-6.5,0-20.7,0-41.3-.1-62,0-2.1,.6-2.8,3.9-2.6,3.1,.2,7.2-.6,9.1,.4,2,1.1,.6,3.9,.6,6,0,9.8,0,19.6,0,29.4Z"/>
    <path class="cls-1" d="M262.6,89.8c0,7.4,0,14.9,0,22.3,0,1.6-.6,2-2.9,1.9-3.4-.2-7.8,.7-9.9-.4-2.2-1.2-.7-4.2-.7-6.4,0-13.2,0-26.4,0-39.6,0-1.9,.7-2.5,3.6-2.3,3.2,.3,7.5-.9,9.4,.5,1.6,1.2,.5,4,.5,6.1,0,6,0,12,0,18.1Z"/>
    <path class="cls-1" d="M264.9,47.4c0,4.6-3.4,7.6-8.5,7.6-4.7,0-8.1-3.3-8.2-7.6,0-4.6,3.7-8.1,8.6-8,4.8,0,8.1,3.3,8.1,8.1Z"/>
  </g>
</svg>